<svg xmlns="http://www.w3.org/2000/svg" xmlns:xlink="http://www.w3.org/1999/xlink" viewBox="0 0 744.09 1052.4"><defs><linearGradient id="b"><stop offset="0" stop-color="#5f4433"/><stop offset="1" stop-color="#5f4433" stop-opacity="0"/></linearGradient><linearGradient id="a"><stop offset="0" stop-color="#4c362c"/><stop offset="1" stop-color="#93654c" stop-opacity=".51"/></linearGradient><radialGradient id="e" xlink:href="#a" gradientUnits="userSpaceOnUse" cy="367.54" cx="448.98" gradientTransform="matrix(1.9105 -1.0389 .8791 1.6166 -731.89 239.81)" r="110.61"/><radialGradient id="f" xlink:href="#a" gradientUnits="userSpaceOnUse" cy="403.62" cx="502.38" gradientTransform="matrix(.67329 -.25448 .30002 .79378 123.36 177.85)" r="110.61"/><radialGradient id="h" xlink:href="#b" gradientUnits="userSpaceOnUse" cy="711.78" cx="423.37" gradientTransform="matrix(1.241 0 0 .61193 -102.03 265.27)" r="207.5"/><radialGradient id="d" xlink:href="#b" gradientUnits="userSpaceOnUse" cy="498.18" cx="581.94" gradientTransform="matrix(.30719 .05032 -.0635 .38769 473.02 347.7)" r="207.5"/><radialGradient id="g" xlink:href="#b" gradientUnits="userSpaceOnUse" cy="695.44" cx="223.64" gradientTransform="matrix(.35311 -.11717 .15264 .46001 -9.623 397.13)" r="207.5"/><radialGradient id="i" xlink:href="#a" gradientUnits="userSpaceOnUse" cy="280.67" cx="474.41" gradientTransform="matrix(.44089 -.12664 .15661 .54522 273.87 186.97)" r="110.61"/><linearGradient id="c" y2="301.31" gradientUnits="userSpaceOnUse" y1="749.88" x2="350.71" x1="445"><stop offset="0" stop-color="#9f673a"/><stop offset="1" stop-color="#9f673a" stop-opacity=".367"/></linearGradient><radialGradient id="j" gradientUnits="userSpaceOnUse" cy="498.79" cx="373.57" gradientTransform="matrix(1 0 0 1.0099 0 -4.95)" r="287.86"><stop offset="0" stop-color="#f2f2f2" stop-opacity=".153"/><stop offset=".5" stop-color="#7f7f7f" stop-opacity="0"/><stop offset=".75" stop-color="#3f3f3f" stop-opacity=".235"/><stop offset="1" stop-opacity=".429"/></radialGradient></defs><g fill-rule="evenodd"><path d="M661.43 497.36a287.86 287.858 0 1 1-575.72 0 287.86 287.858 0 1 1 575.72 0z" color="#000" fill="#be7539"/><path d="M655 558.52c-61.98 268.31-413.78 307.61-537.14 70 14.77-1.85 33.78 19.23 40.66-3.67 13.1-5.18 19.58 37.25 30.24 8.85 13.55-11.25 20.12-26.46 25.53-42.77 23.07-3.88 55.62 4.25 64.28-25.71 21.34-14.62 21.03-43.99 24.35-67.21 1.19-25.34 2.5-54.56 20.14-73.86 18.43-9.04 45.47-42.12 18.37-56.07-22.01-15.94-50.62-6.38-74.82-16.76-27.56-8.14-62.75-12.8-85.18 9.61-12.59 11.57-15-6.07-4.92-28.73 13.94-18.33 19.11-63.53 50.63-51.27 24.38-6.89 52.61-6.59 76.47-6.59 2.83 28.78 49.47 21.86 46.29-6.75 7.63-19.51 37.66 4.54 54.87.03 29.99 6.58 40.37-34.05 63.44-36.16 21.25 12.41 46.85 19.11 64.65 36.62 17.45 7.85 18.68 30.82-4.29 30-31.42 11.15 18.91 50.63 32.46 26.07 10.01-11.46 21.25-21.84 30.66-3.67 21.32 17.61 17.08 48.23 16.34 72.89-7.14 28.95-5.77 60.28 8.49 86.97 13.65 20.47 19.98 42.34 20.21 66.71 7.31 3.76 17.75-.39 18.27 11.47z" color="#000" fill="url(#c)"/><path d="M381.43 423.08h-9.51c-13.99 3.99-32.08 6.23-40.32 20.02-3.28 16.15-24.05 21-19.84 39.32 3.71 6.56 7.31 11.22-1.05 16.37-5.98 13.48-9.11 28.15-8.57 43.04 1.22 13.43 11.97 23.66 17.01 35.82 6.45 12.83 10.61 28.39 22.57 37.28 15.71 4.11 27.13-9.99 42.56-8.66 8.67-8.45 38.15-13.38 52.15-17.48 15.59 5.13 35.29 4.33 46.35-9.32 18.46-6.75 146-58.2 160.89-54.36 17.73.35-5.32-35.16-7.04-47.75-7.25-11.67.79 19.57-4.75 2.8-1.43-17.15-6.82 17.46-7.2-.23 3.72-16.56-6.81-29.57-11.57-44.41-1-8.19 6.49-31.43-1.74-33.26-4.69 3.47-4.95 25.72-8.55 11.67-5.98-10.07 39.21-87.79-33.14-100.39-33.05 35.73-3.76 27.37-13.15 52.8-4.69 12.72-13.69 3.7-21.05 6.27 10.5 4.71-1.65 53.85.21 58.59 16.74 5.63 13 22.49 18.85 35.72 8.57 2.12 9.34 6.61.71 9.68 1.96 8.28-9.75 6.82-6.01 16.2-8.74 5.3-2.53-17.41-7.89-22.5-4.13-10.53-7.26 10.35-2.13 13.54 7.24 14.95-17.72 7.43-11.64 20.31 10.29 10.04-8.59 20.24-13.29 6.78-4.69-11.67-11.78-1.23-12.55 4.83-4.79-7.81-27.1-16.58-17.98.43 4.02 9.42-12.91 10.12-6.62-.97-10.36-8.79-7.2.4-5.76 7.03-10.28-3.2-18.44-22.89-28.43-17.92 5.24 18.15-19.1 23.57-28.23 10.61-9.15-6.12-17.57-19.55-3.95-25.87 5.98-10.4 7.33-23.67 3.72-33.88 16.99-7.2-11.99-10.04-4.62-22.6.72-9.1-11.48-7.08-12.88-14.99-7.06-2.36-9.68 6.51-15.56 5.48zM545 458.79c0-3.41 3.46 5.98 4.29 9.29.47 1.9 1.42 3.75 1.42 5.71 0 2.53-3.92-3.21-5.71-5-2.56-2.56-2.83-5.28 0-10zM371.43 663.08c-4.14 3.15-10.9 1.96-13.91 6.35 1.67 7.47-8.98 5.63-8.91 12.64-1.92 5.73 1.78 14.17-5.75 14.94-5.67 3.32-16.67 1.51-20.82-3.18-4.57-3.03-10.78-2.95-14.29 1.72-5.67 2.95-11.88-1.61-16.87-4.21-3.6-3.23-7.37-6.19-11.17-9.15-4.46-5.49-12.19-5.72-18.28-8.4-7.23-1.01-7.49-9.52-10.54-14.58-3.15-5.98-5.95-12.09-9.36-17.98-3.84-6.14-1.33-15.48 5.61-18.15 4.66-2.86 10.8-5.75 15.96-2.34 5.59 2.37 96.85 37.61 103.33 40.19 1.61.84 3.32 1.47 5 2.15zM212.86 258.79c14.77-10.12 31.02-19.17 49.46-26.78 2.55 3.45 12.82-1.04 17.52-1.2 6.53-3.96 13.77-5.45 21.35-5.1 8.33.73-4.49 3.49-6.94 3.6-7.27.96-14.69 4.18-19.86 9.3-.79 8.77 9.68 2.98 14.06 1.85 4.1-1.31 12.98-3.92 9.32 3.87-3.57 7.89-14.07 8-21.08 11.32-10.7 3.56-21.43 7.61-31.01 13.6-6.62 5.6 1.36 9.09 6.91 7.37 9.17-.86 18.39-.56 27.57-.82 5.58-1.31 14.87-10.96 18.74-2.75-3.46 9.16 8.59.75 9.55 4.97-3.48 5.8-3.52 12.87 4.06 15.07 6.2 3.61 13.22 5.09 20.35 4.27 10.36-.09-.98 10.08 2.12 14.81 3.22 2.9 11.24 8.64 3.23 11.32-6.45 2.14-15.41-1.31-19.58 5.65 5.13 6.73-7.23 6.82-11.51 8.9-8.26 2.24-15.94-2.55-22.18-7.38-8.64-4.53-18.6-5.24-28.18-4.7-8.03.1-15.81 2.53-23.86 2.14-8.27 1.14-16.87 2.44-24.01 7.12-7.76 2.48-14.6 8.3-23.22 7.14-5.99-2.09 2.19-11.94 3.65-16 3.18-7.8 9.11-14.08 12.2-21.86 1.64-6.37 8.6-9.4 11.56-15.09 1.62-6.61 5.01-12.72 5.84-19.52.31-3.85-3.42-8.57-6.06-11.1zm67.85 35.72c2.47 1.47 2.51 4.78 4.5 6.67 1.79 1.32 1.66 3.62-.89 3.16-5.44.8-11.18.79-16.19 3.36-3.91 1.75-7.89 3.43-12.11 4.27-5.48 1.48-11.23 2.39-16.89 1.58-2.04.71-5.96-.8-3.94-3.31 2.31-3.58 6.76-4.93 10.83-4.93 3.64-.1 7.44.04 10.82-1.53 3.21-.83 6.76-.84 9.53-2.9 4.52-2.65 9.15-5.32 14.34-6.37zm142.15-80.72c40.07 7.28 74.98 20.64 112.59 45.45-3.74-3.41-13.02 6.98-5.19 7.95 6.1 1.47 11.2 5.16 16.98 7.38 5.71.9 6.18 9.69-.81 7.79-6.65 1.51-3.46 9.54-2.47 13.05-4.22 4.52-10.37-3.66-15.4.06-4.65 2.05-11.93 1.76-11.66 8.68.03 4.68-1.47 9.3-7 7.17-6.13-.63-12.49-2.85-17.16-6.93-4.21-4.05-8.36-8.5-13.59-10.93-4-3.53-7.63-7.71-13.02-9.21-5.54-3.27-12.22-4.22-17.1-8.55-4.16-2.25-12.99-8.26-5.59-12.2 5.77-2 13.11-8.73 4.99-13.46-2.49-5.14 10.23-3.04 8.91-7.03-4.6-3.65-11.58-4.72-13.61-11.24-3.38-5.62-9.38-9.12-15.45-11.19-2.18-1.59-5.14-3.98-5.42-6.79z" fill="#9f673a"/><path d="M579.29 483.08c-11.88-2.12-18.18 15.07-8.6 22.61-5.51 8.38-7.33-16.49-10.69-1.18 8.14 5.74 4.67 13.3-2.17 4.89-12.23-1.86-2.2 23.27-18.7 18.53 5.62 9.1 9.54 22.6-7.3 19.01-14.79 1.85-10.1-19.24-22.54-19.58-8.45-10.76-18.78 4.93-27.41 5.56 1.29 9.33-8.27 8.06-.15 16.52-16.95 1.33 8.6 31.11-12.44 28.64-10.97 17.41-20.36-10.95-6.86-17.14-8.22-9.51-30.56 3.18-40.74-8.96-8.18-6.9-30.87-23.21-13.5-29.82 2.22-17.54-16.2-22.83-22.94-34.31 4.21-11.87-.54-14.06-10.96-9.77-15.4 3.17-30.38 5.01-46.45 5.22-12.92.44-15.18 12.65-13.12 17.63-14.08 5.28-.04 22.85-11.74 29.7 5.91 20.03-19.3 24.96-20.33 41.95-5.82 7.13-7.48 16.03-9.66 1.37-1.34-14.4-5.62 11.48-9.05 14.56-10.91.53-18.55 20.39-31.23 7.12-9.04-7.31-22.05-7.76-31.48-12.92.65 9.5 12.4 15.03.26 21.76-6.49 22.29 21.79 11.37 32.06 18.93 10.23-8.58 30.22-.12 33.46 12-.49 13.25 13.99 20.55 20.95 8.41 2.16 8.05 8.1 9.87 10.48 2.71 11.38 13.23 29.59 6.44 44.42 10.13 9.84 8.15 37.36-1.95 36.2 13.58-8.02 5.97-7.76 16.82-21.02 13.72-5.62 10.72 17.75 10.1 24.24 6.13 7.34 3.24-17.7 5.47-1.87 10.1 8.31 19.08 17.31-15.82 9.13-23.3-1.14-16.76 28.69-9.03 40.75-13.88 12.67-2.74 29.31-1.78 38.41 5.97-3.66 11.58 3.5 26.18 16.39 15.13 14.8-4.83 14.98-22.59 31.38-25.92 14.25-4.91 21.99-18.8 31.53-28.94 11.34-11.57 12.52-27.53 18.44-41.95 12.88-12.09 11.44 23.41 24.79 5.16 3.85-12.57-2.52-26.86.2-39.37-7.2-7.18 5.14-25.78 6.7-7.92-.72 7.67-.28 41.18 9.26 22.79 1.28-15.35 3.86-30.85 9.47-45.38 4.17-6.94 3.29-38.71-4-17.35-.51-1.37 1.12-21.87-6.07-15.26 2.16 7.57 1.39 25.83-4.57 9.32-4.36-12.82-6.81-.61-4.3 6.08-7.3.15-3.29-18.55-13.03-10.12 6.28 3.24 9.66 13.73.56 6.32-9.31-8.92 9.72-18.39-1.82-27.94-2.25-17.97-3.82 6.8.77 11.95-2.3 2.89-4.52-.24-5.11-2.49zM400 580.22c-11.82 3.2-11.45 37.02-25.89 20.43-11.28-2.64-18.68 23.35-32.68 11-4.02-6.76.53-15.62-8.34-19.6 1.47-11.73-15.24-16.51-4.84-28.04-5.44-11.1-29.9-17.56-18.35-32.9 9.86-9.57-6.08-23.86 8.32-33.14 1.32-14.07 25.13-14.13 36.28-9.94 10.47-4.94 33.97-12.9 24.21 7.72-10.53 12.77-4.62 29.56 13.43 22.33 7.35 1.07 7.1 12.43-.71 4.28-11.64 2.38 13.9 12.49.05 16.57-19.55-1.9 11.46 19.4-8.62 17-10.98 11.12 17.68 31.36 11.63 12.19 6.51-5.02 5.54-7.22 2.63-12.79 7.22-.5 5.37-13.93 9.23-1.08 6.34 3.47 9.88 7.53 16.62 6.29 3.22 12.52 7.12 1.52 12.01 1.03 7.64 3.98 23.52-2.09 18.08 12.55 10.74 17.54-31.82 20.67-13.79 4.17-6.92-11.45-16.96 18.85-18.25-.79-6.99-5.03-19.89 2.5-19.85-7.12-.61 3.38 1.52 6.63-1.17 9.84zm-38.57-137.14c-1.96-1.92 4.36-5.88-3.57-7.86-2.75-.69-4.74.78-7.86 0-4.72-1.18-5.71-2.5-9.29-.71-2.92 1.46 6.31 4.97 6.43 5 4.61 1.15-.08 3.77-2.14 4.28-2.47.62-5.32 2.66-7.14 3.57-2.64 1.32 7.33 1.56 7.85 1.43 2.96-.74 5.11-2.55 7.15-3.57s5.6-.96 8.57-2.14zm-193.57 82.5c9.98 1.59 21.18-11.03 16.13-19.1-3.81-7.44-13.73-.32-14.66 4.8-7.34-1.76 5.18-15.26 11.25-11.69 11.01 2 11.01 17.11 2.46 22.35-4.12 3.44-9.93 5.4-15.18 3.64zm-31.79 28.57c-3.67-13.11 20.54-16.43 19.46-2.19.8 6.23-5.31 14.74-12.55 11.96 14.18-2.05 4.92-26.06-3.75-12.79l-3.16 3.02zM130 590.22c-.55-3.73-.94-5.71-6.43-5.71-2.95 0 .08 7.22.72 7.85 2.67 2.68 4.93 1.77 5.71-2.14zm-8.57-172.86c3.54 14.97.65 41.9-12.97 44.41-15.825 2.28-18.734-25-5.71-30.52 17.54-1.73-8.427 24.81 7.97 22.35 9.7-4.7 8.27-21.23 9.87-30.28.2-2 .45-3.99.84-5.96z" fill="#cc8044"/><path d="M621.07 515.93c3.63 2 5.52 6.54 9.14 8 4.31-.29 8.89-.63 12.45 2.32 3.59 2.47 2.03 7.25 2.34 10.89-.31 4.41 1.06 9.46-1.96 13.21-1.92 4.3-4.28 8.94-3.12 13.79 1.52 3.1 4.29 5.96 4.02 9.63.24 4.34-3.43 7.46-5.11 11.16-3.48 3.03-6.86 6.36-8.93 10.56-2.07 3.8-8.79 3.58-8.98 8.49-1.14 3.78.36 7.47.51 11.24-1.54 4.74-6.43 0-9.26-.63-3.62.39-8.49.65-10.6 4.01-3.82 4.65-7.23-1.88-10.5-3.74-2.36-3.08 2.24-7.65-2.45-10.07-2.14-3.55.08-7.48.84-11.09 2.92-3.11 1.37-7.92 2.27-11.81.05-6.19.17-12.41-.06-18.59-1.83-3.77-.34-7.92-1.55-11.78-.87-3.66-1.89-7.57-.83-11.3 1.97-1.4 6.29-2.53 8.22-1.51.92 7.11.64 14.3.76 21.46.57 3.32-.16 8.57 3.71 9.88 4.78 1.65 5.44-4.46 5.88-7.69.78-4.53 1.31-9.09 1.07-13.7-.53-4.33 1.94-8.12 2.14-12.37.12-4.37 2.64-7.59 4.57-11.27 2.29-2.52-.7-8.54 4.11-8.45.47-.15.87-.45 1.32-.64z" color="#000" fill="url(#d)"/><path d="M412.14 243.79c-17.94 2.73-36.16 3.84-54.31 3.54-7.46-3.45-22.05 1.65-12.11 10.27 4.44 8.32 17.07 18.9 9.38 27.1 11.24 6.99 20.97 16.27 34.99 17.52 5.43-3.6 19.24 1.84 8.89 6.72-11.06 6.38-19.3-9.03-30.28-1.09-8.52 2.26-18.34-8.42-21.98.46-16.45-3.46-3.29 14.62 5.58 14.54 10.51 8.03 24.7 4.25 35.29 12.08 7.53 9.32 13.74 19.63 24.58 25.88.98 4.62-11.7 2.39-5.74 10.84 4.97 12.25-19.56-9.31-17.8 3.32 7.81 3.89 27.95 8.9 16.71 20.11-5.91 4.68-12.6 26.54-.11 25.03 3.43-8.53 7.98-16.35 14.29-12.3 1.84-5.33 1.41-17.68 5.01-5.36 4.5 9.82 5.25 25.09-5.24 31.34-8.68 7.5 6.98 26.6 17.14 18.57 11.84-.66 10.9-16.68 17.41-20.41 3.04 10.97-13.42 28.2 5.45 31.13 3.25 5.96 10.48 6.54 14.13 7.43 2.3 10.38 6.97 29.35 20.26 16.42 6.84-4.03 11.17-9.42 19.72-6.52 9.1-3.8 6.4-21.46 19.87-17.02 7.97 8.51-4-23.05 9.9-14.08 10.67 5.7 2.32-4.65-2.46-6.95 3.8-2.96 10.4-5.47 2.86-10.71-9.45-2.3-12.71-8.75-6.27-16.64 1.69-8.67-1.36-18.18 3.41-26.22 4.02-8.73-1.82-13.37-8.01-17.47 5.53-7.92 19.61 2.12 26.39-6.61-4.45-4.19-.95-9.37-1.43-14.18-12.78-2.88 2.32-20.81-12.84-23.1-9.97-4.5-18.73-11.71-29.82-13.64-10.98.7-20.37-4.08-27.14-12.86-6.99-10.91-21.7-11.27-31.39-19.67-9.67-6.1-25.36-12.35-23.55-25.94-6.7-4.17-13.26-8.93-20.78-11.53z" fill="url(#e)"/><path d="M406.43 215.93c5.55-1.65 10.23 2.27 15.67 2.39 7.84 1.56 14.47 6.81 19.37 12.94 3.87 2.95 8.35 10.31 1.49 12.18-2.09 3.52-6.82 5.72-2.51 9.84 2 6.61-7.95.83-9.44 5.12-3.56 5.69-9.81-5.25-13.51-.32 1.01 1.48 7.34 5.65 2.39 6.92-4.77.96-9.18-6.33-12.82-4.34 3.31 6.07-5.14 1.8-7.81 1.82-.98 5.79-7.58.36-10.69-.83-3.93-.68-10.4-3.65-12.5 1.43-3.82 4.46-10.09 2.34-12.15-2.5-3.41-1.14-6.08 7.5-8.56 2.84 1.69-5.51-3.19-8.74-8.16-8.18-3.51-2.63-5.83-6.83-11.13-6.09-5.36-.77-10.58-2.98-16.07-2.14-3.67-.78-.28-7.33-5.06-8.46-6.06-4.18-1.29-11.01 4.36-12.17 3.35-.5-.42-6.26 4.63-6.16 5.82-1.79 11.43-5.23 17.74-4.66 7.39-.37 14.58-2.51 22.04-2.13 7.71-.17 15.49.47 23.14-.54 6.07.64 12.62-.4 18.17 2.64l.65.22.76.18zm12.5 3.93c4.63 1.04 8.17 4.36 12.5 6.07 2.41 2.24 4.19 5.02 7.63 6.09 2.26.96 6.62 5.74 2.47 6.92-3.82 1.11 2.28 2.68-.81 4.13-2.54 3.42-6.28 5.42-10.43 3.3-3.96-.26-7.7-1.31-11.42-2.71-5.37-.69-10.8-.62-16.2-.23-4.29-.19-8.54.37-12.75 1.08-7.5.01-15-.02-22.5.07-3.44-.57-6.9-.93-10.4-.46-4.8-.14-9.64-.35-14.4-.95-4.14-.12-5.67-4.74-4.87-8.23 2.35-5.71 7.92-9.45 13.43-11.8 3.85-1.61 7.82-2.37 11.94-2.82 4.03-.83 8.33-.03 12.17-1.87 3.35-1.46 6.91-1.86 10.46-2.49 6.27.06 12.63-.42 18.81.74 3.76.83 7.26 2.43 10.97 3.39 1.39.71 2.07.54 3.4-.23z" fill="#5c4533"/><path d="M344.29 225.58c-.28 1.42-2.75 1.18-3.84 2.05-2.24 1.4-.1 3.7 1.86 3.57.86.17 3.31.34 2.97 1.1-2.03.9-4.2.23-6.09-.61-2.16-.48-2.93 1.81-2.74 3.52-.08 2.06-.04 4.32 1.16 6.08 1.62 1.19 3.78 1.29 5.36 2.62 1.73.55 3.41 1.28 5.17 1.74 1.82.24 3.69.02 5.48-.22 1.9-.84 3.85-1.51 5.82-2.14 1.28-.61 3.42-1.46 4.44-1.08-1.59 1.27-4.01 1.08-5.19 2.91-1.18 1.16-.83 3.25 1.11 2.9 2.32-.06 4.91.43 6.92-1.06 1-.99-1.47-3.19-.61-3.5 1.3 1.02 1.47 4.48 3.81 3.04 2.09-.71 4.37-.15 6.48-.74 1.64-1.08 1.28-3.41 2.13-5.01 1.02-3.11.57-6.81-1.82-9.2-3.46-3.49-8.43-4.78-13.11-5.66-5.97-.98-12.08-1.23-18.1-.64-.37.1-.94.04-1.21.33z" fill="#deac9d"/><path d="M408.21 217.72c3.94 2.66 9.17 1.16 13.03 3.52 2.22 1.65-4.25 4.09.86 3.66 3.58-1.07 3.47 1.3 1.49 3.34 1.59 2.58 6.46.48 4.67 5.21.39 2.73 5.9 4.61 2.35 7.96-3.11.32-8.76-3.8-9.12 1.71-4.19 2.83-9.34 1.28-13.95 2.38-5.19.73-10.24-1.33-15.44-.52-6.01.87-12.12.56-18.11-.22-.73-3.12-.98-6.45 1.67-8 1.31-3.53-1.94-3.73-2.83-.77-3.13 2.65-7.77 3.35-11.62 2.12-4.72-1.27-8.73 2.11-13.18 2.75-5.01-2.74 3.44-6.29 2.92-9.86-.47-4.66-11.81-.89-7.74-6.43 4.19-1.24 7.64-4.03 11.88-5.11 4.88-.07 8.85-2.07 13.53-2.86 5.22-.37 10.43-.4 15.64.2 5.7-.19 11.39.4 17.09.27 2.29.18 4.57.57 6.86.65zm-86.25 33.75c-3.18 1.14-8.92-.37-10.43 2.71 3.6.82 9.64 4.31 12.22.78-.43-1.11-.19-3.32-1.79-3.49zm-9.82-17.32c-5.49-1.16-.92 5.6 2.37 4.39 3.03 5.03-5.57 4.66-8.6 5.74-2.3.18-9.47 2.59-4.23 4.08 2.12-1.14 6.14-2.17 5.91-4-.35 2.83 4.75 1.95.31 3.71 1.37 2.36 9.57.99 7.89-3.71 1.79-1.6 10.5-.47 4.71-3.21-4.53-.03-.9-5.66-5.74-5.36-.96-.43-1.57-1.38-2.62-1.64zm4.29-7.5c.38 2.77-4.41 4.91-6.58 4.34 2.68-2.33 6.71-5.3 1.22-6.84-5.69-1.4 8.68-4.03 3.22-5-4.33-2.32 7.22-2.16 1.93.49 4.54.08 8.17-3.24 12.53-4.06 4.15-1.11 8.48.56 12.41-1.6 4.5-.12 8.96-2.23 13.32-.22 4.72-.88 9.49-1.37 14.36-1.04 6.05.33 12.34-.8 18.21.97 2.13 1.29 8.41 2.39 2.73 2.01-4.71-.12-9.33-1.32-14.07-1.19-5.18-.17-10.34-.55-15.53-.54-4.08 1.69-8.68.67-12.99.71-2.21-.57-7 1.36-2.01 1.97 6.6.48-5.06 2.65-4.66-.63-3.62-1.23-7.37 2.96-11.13 3.71-4.76.82-10.43 2.64-12.96 6.92 1.11.34 8.68-3.41 7.3-.83-1.81.46-6.83 4.37-7.3.83zm80.71-13.75c4.1.34 9.6-1.17 12.54 2.13-3.5 2.27-7.62-.8-11.05-1.92l-.59-.03-.9-.18z" fill="#fdf5f5"/><path d="M408.93 233.43c-1.92-.28-2.92.84-3.75 1.25-.82.41-1.43.81-2.32 1.25-.87.44-1.61.61-2.32.9-.84.33-1.08.4-1.08 1.6 0 1.05 1.31 1.54 2.33 1.79.87.22 1.98.54 2.67.71 1.31.33 1.63 1.08 3.04 1.08 1.13 0 2.03-.04 2.68-.36.65-.33 1.46-.74 2.14-1.25.82-.61 1.25-.71 1.79-1.79.38-.77.53-1.48.53-2.5 0-1.19-.26-1.51-.89-2.14-.33-.33-1.48-.65-1.96-.89-.87-.44-1.42-.71-1.97-1.43-.51-.69-.64-1.15-1.25-1.97-.42-.56-1.56-1.05-1.96-1.25-.79-.39-2.13-.35-3.04-.35-1.17 0-2.31-.18-3.39-.18-.59 0-1.66-.76-2.32-1.25-.58-.44-1.36-1-1.97-1.61-.69-.69-.62-1.21-1.78-1.78-1.1-.55-1.49.29-2.32.71-.87.43-1.45.9-2.15 1.25-.71.35-1.07.71-1.78.89-.8.2-1.35.52-2.15.72-.94.23-2.23 0-3.21 0-.42 0-1.54-1.07-1.79-1.25-.65-.49-1-.76-1.42-1.61-.79-1.57-3.71-1.53-5-1.61-.83-.05-1.68.81-2.33 1.07-.95.39-2.16.36-3.21.36-.96 0-1.82.19-2.5.36-.83.21-.94.68-1.79.89-.79.2-1.65.29-2.14.54-.85.42-.78.97-.53 1.96.27 1.12 1.32 1.79 2.32 2.5.72.52 1.42 1.07 2.5 1.07 1.5 0 2.79.32 3.93-.53.74-.56 1.04-.95 1.25-1.79.22-.89 1-1.36 1.25-2.32.2-.81.72-1.08 1.25-1.61.57-.57 1.97-.08 2.5.18.75.38 1.13.6 1.6 1.07.7.7 1.23.8 2.15 1.25.91.46 1.58 1.06 2.32 1.43.84.42 1.74.71 2.68.89 1.06.22 2.58-.01 3.39-.17 1.03-.21 1.54-.54 2.68-.54.93 0 1.83-.03 2.68.18.99.25 1.95.53 2.67.89.85.42.9.94.9 1.97 0 .92 1.06 1.41 1.6 1.96.68.67 2.01-.04 2.33-.36.56-.56 1.15-1 1.6-1.6.41-.55 1.56-.36 2.32-.36 1.12 0 2.56.99 3.22 1.78z" fill="#fddae0"/><path d="M376.43 245.93c.56-.92 2.59-4.64 3.21-5.89.6-1.19 1.71-1.92 2.86-2.5 1.31-.66 2.59-1.09 3.93-1.43 2.02-.5 5.4-2.88 6.78-3.57 1.27-.63 3.37-.36 5-.36 2.69 0-.11 1.13-1.42 1.79-1.36.68-2.62 1.49-3.93 2.14-1.3.65-3.2 1.24-4.29 1.79-1.53.76-2.27 1.56-3.21 2.5-.97.97-1.64 2.2-2.15 3.21-.81 1.62-.33 2.5-2.85 2.5-.85 0-2.97.21-3.93-.18zm-21.25-21.6c-1.82 0-3.04 0-4.47 1.43-.4.4 5.81.09 7.5 1.78.6.6-2.44-2.62-3.03-3.21zm3.75 4.46c-6.21.45-8.05 5.88-.72 9.82-2.2-4.23-5.24-6.48.72-9.82zm6.06.99c-4.84.35-6.27 4.58-.55 7.66-1.72-3.3-4.1-5.06.55-7.66zm18.49-8.49c3.76 2.73 2.67 6.56-3.6 5.91 3.15-1.55 6-1.63 3.6-5.91zm24.39-1.01c-4.34-.4-5.07 5.25.52 10.59-2-4.92-4.38-7.81-.52-10.59z" fill="#1a260e"/><path d="M577.14 297.36c-.77 4.42 3.91 7.82 4.28 12.24 1.8 2.19 2.79 7.87-1.65 5.54-3.7 1.21-.24 6.85 1.26 9.12 2.84 3.73 3.74 8.7 3.03 13.23-2.68 2.1-7.74 1.06-8.61 5.4-.74 3.62-1.08 7.95 1.67 10.87 3.45 3.79-.19 7.91-3.55 10.03-3.21.46-9.23-1.8-8.73 3.99.34 4.49-1.03 8.18-3.85 11.44-.93 3.99 1.73 7.88 1.66 11.55 3.82.99 8.18 1.22 10.76 4.74 3.42 4.03 7.34 7.71 12.3 9.71 3.3 3.24 9.27.8 7.99-4.06.13-3.86-5.06-8.45-.9-11.52 3.7-.85 7.77-2.64 6.49-7.28-.89-3.71-1.05-8.23 3.89-8.5 3.89-3.61-3.68-6.97-3.69-10.92.56-4.21-3.31-9.81.2-12.92 4.15-.89 6.67-4.86 3.49-8.39-2.58-3.22-5.75-6.87-4.37-11.36 2.26-4.85-4.53-6.56-7.36-9.01-3.89-3.9-1.96-10.25-5.06-14.62-1.38-3.87-5.52-5.01-7.99-7.82-.41-.5-.8-1-1.26-1.46z" color="#000" fill="url(#f)"/><path d="M398.93 420.93c2.74 2.74 4.34 7.35 2.64 11.04-3.52 2.26-2.96-4.14-4.57-4-1.09 4.71-.49 9.62-.21 14.39-1.19 3.48-6.76 1.02-5.06-2.55-.3-4.11 3.37-7.29 2.92-11.46.88-3.78-2.72-5.01-5.36-2.77-4.31.89-2.42-5.53 1.27-4.19 3.23-.01.18-5.58 4.42-3.85 1.93.18 3.49 1.5 3.95 3.39zm-21.79 4.29c3.08 1.52 9.52 1.21 10.45 4.35-2.38 1.33-3.08 3.89-3.3 6.18-1.98-1.92-3.73-8.68-6.85-3.84-3.5 3.44 1.13 7.72 4.96 6.45 3.27-2.01.44 4.5 4.25 2.58 5.6.31-1.02 3.56-3.44 3.21-2.58 2.69-4.57 6.38-9.09 6.03-3.8-.8-7.92-1.9-11.77-.42-3.13 2.24 3.1 6.62 5.86 4.39 2.95-1.71 6.14-2.88 9.21-4.35 3.36-1.93 7.74-1.71 11.36-.68 3.15 2 7.73 2.38 9.56 6 2.38 3.77 7.77 1.62 11.41 2.86 3.34 1.3 6.55 4.27 5.13 8.21-.49 4.06.47 8.15.12 12.24-1.3 3.46-5.04 5.52-6.22 9.25-2.1 3.05-5.73 4.23-8.77 6.03-.46 2.85-2.29 6.83-5.03 2.83-.97-1.87-1.39-5.79-3.91-2.75-4.19 1.79-5.73-4.81-1.24-5.39 3.01-3.03 3.66-7.77 1.24-11.39-1.37-4.11-5-5.4-8.39-2.61-4.32-1.42 4.1-7.95-1.1-5.1-3.2 2.24-6.62 4.02-10.05 5.89-1.42.41-4.75 3.59-3.11.03 3.34-1.39 6.83-2.67 9.6-5.14 2.08-2.06.25-3.98-1.95-2-3.78 2.2-7.63 4.23-11.29 6.57-1.71 1.1-5.38 2.04-3.35-1.22 3.25-1.9 6.92-3.29 9.97-5.63 2.43-.58 2.88-1.98-.06-1.3-2.91.38 3.11-5.13-1.37-4.9-3.72.14-6.28-2.91-9.77-3.2-3.59.38-7.33-.59-10.04-3-3.73-2.01-1.65-7.01 2.23-7.36 3.22-1.51 6.49-2.88 9.5-4.78 3.94-1.37 7.93-3.81 12.29-2.82 1.63.48 5.02 1.02 2.15-1.1-1.84-3.07-4.69-5.21-7.34-7.23-.84-4.63 4.5-6.6 8.15-6.89zm31.07 20.36c3.93-2.08 7.63 1.13 10.81 3.07 2.38 1.06 2.9 8.37-.21 4.53-1.88-3.37-4.98-6.09-8.8-6.93-.69.22-1.26-.37-1.8-.67zm-5 2.5c-2.23.47-7.87-.94-8.26.64 2.18.98 7.37 2.38 8.39.13l-.13-.77zm-37.85 17.5c-1.38-.05-10.27-.56-4.65 2.14 2.03.77 4.06.09 4.65-2.14zm-8.57 15.71c-3.35 1.99-4.12-1.6-2.59-3.83-1.23.98-8.03 2.41-4.31 4.13.73 2.84 7.12 3.58 6.9-.3zm23.57-26.07c-1.3 1.18-3.04 1.79-4.78 1.78-.89.05-1.76-.13-2.61-.36-.73.07-1.46.77-1.43 1.54-.02 1.51.3 3 .69 4.44.52 1.29 1.99 1.67 3.13 2.24 1.42.77 3.04 1.15 4.66 1.08.87-.01 1.88.16 2.57-.5.99-.82 1.9-1.9 1.99-3.24.12-1.35.19-2.86-.67-4.01-.29-.72-1.43-1.13-1.39-1.87.72-.72 1.73-1.06 2.67-1.41.78-.16 1.24-.88 1.83-1.34.01-.63-1.25-.17-1.71-.16-1.68.36-3.41.8-4.87 1.75l-.08.06z" opacity=".8" fill="#553c2c"/><path d="M380.36 459.15c-2.02.04-2.36 1.21-2.86 3.21-.66 2.64 1.14 2.86 3.21 2.86 2.01 0 1.79-1.62 1.79-3.57 0-1.13-.97-1.57-2.14-2.5z" opacity=".8" color="#000" fill="#553c2c"/><path d="M227.86 612.01c-2.23 0 4.27 1.24 6.43 1.78 2.2.55 4.07.79 6.07 1.79 2.19 1.09 5.15 1.68 7.5 2.85 3.11 1.56 6.42 2.29 9.64 3.58 3.63 1.45 7.86 2.5 11.43 3.21 2.47.49 4.94 1.86 7.5 2.5 2.08.52 4.2 1.74 5.71 2.5 1.25.62 2.63 1.1 3.93 1.43 1.98.49-2.96 1.07-3.57 1.07-1.43 0-3.57-1.43-4.29-2.14-.81-.81-4.17-1.2-5.35-1.79-1.6-.8-4.17-.83-6.07-1.78-1.96-.98-3.74-1.52-5.72-2.5-2-1-3.97-1.27-6.07-1.79-1.95-.49-3.52-1.33-5.36-1.79-1.73-.43-3.82-1.37-5.35-2.14-1.82-.9-3.36-1.1-5-1.43-1.38-.27-3.37-.66-5-1.07-1.69-.42-3.49-.78-4.65-1.07-1.54-.39-3.09-.69-4.64-1.07-2.12-.53-2.86-.64-2.86 1.78 0 2.25-.57 2.5-2.85 2.5-2.17 0-.74-2.81-.36-3.57.6-1.2 2.74-2.44 4.28-3.21.94-.47 3.87.2 4.65.36zm12.14-7.5c.74-.37 3.95.62 5.71 1.07 2.08.52 3.98 1.01 6.08 1.43 2.15.43 4.35.55 6.42 1.07 2.04.51 4.02.66 6.08 1.07 1.89.38 3.85 1.32 5.71 1.78 1.63.41 3.31 1.01 5 1.43 2.24.56 3.28 1.27 5.36 1.79 2.06.51 2.74 1.07 0 1.07-1.94 0-3.95-.99-5.72-1.43-2.25-.56-4.35-.91-6.43-1.43-2.06-.51-3.28-1-5-1.43-1.63-.41-3.01-1.11-4.28-1.42-1.69-.43-3.37-.4-4.64-.72-1.82-.45-3.43.04-5-.36-1.42-.35-2.62-1.1-3.93-1.42-2.42-.61-3.55-.25-5.36-2.5zm45.36-8.93c-1.57-.4 3.07 1.03 4.64 1.43 1.77.44 2.73 1.07 4.64 1.07 2.05 0 2.96.35 5 .35 1.93 0-2.51.9-3.21 1.08-1.43.35-3.53.34-5 .71-2.69.67-1.34 1.16 0 2.5 1.13 1.13 2.34 1.62 3.21 2.5 1.46 1.45 2.36 3.14 3.22 4.29 1.36 1.81-1.18 1.04-2.5.71-2.07-.52-2.84-1.17-4.65-.71-1.77.44 1.02 3.51 1.43 3.92 1.11 1.11 3.01 1.47 4.29 1.79 1.43.36 2.8 1.01 3.57 1.79 1.47 1.47-1.88.68-3.21.35-1.85-.46-3.57-1.33-4.65-2.14-1.01-.76-2.67-1.16-3.93-1.79-.88-.44-3.85.79-5 1.08-1.57.39.94-2.73 1.08-2.86.77-.77 3.07-1.51 3.92-2.14 1.49-1.12 1.32-1.69 1.79-3.58.39-1.57-.93-3.07-1.79-3.92-.97-.98-1.63-2.2-2.14-3.22-.42-.85-.44-1.86-.71-3.21zm-7.86 27.85c-.92-1.83 4.06.67 6.07 1.08 2.56.51 4.83 1.37 7.5 2.14.83.24 1.67.47 2.5.71 1.46.42 3.1 1.05 4.64 1.43 2.1.52 3.08 1.01 4.65 1.79 3.2 1.6-.48.69-2.15.35-2.09-.41-4-1.01-6.07-1.42-1.84-.37-3.71-.36-5.71-.36-1.97 0-3.22.35-4.64 0-1.5-.38-3.22-1.25-4.29-1.79-1.99-.99-2.5-1.08-2.5-3.93zm26.79-6.78c-1.62-.81 3.55.71 5.35.71 2.14 0 1.06 1.83.72 3.22-.45 1.8.25 3.71.71 4.64.62 1.24 1.52-2.33 2.14-3.57.94-1.87 1.39-3.17 2.5-4.29.94-.93 1.89-2.92 1.08.36-.41 1.62-1.21 2.76-1.79 3.93-.67 1.33-.63 3.2-.36 4.28.16.65 2.8 1.94 3.22 2.15.82.41 1.51 3.55 1.78 4.64.49 1.96.06 3.32.72 4.64.34.68 3.29 1.65 4.28 2.15 2.35 1.17 4.32 1.87 6.79 2.85 2.28.91 4.67 1.09 6.78 2.15 2.28 1.13 6.05 1.15 8.58 1.78 2.81.71 5.36.86 8.21 1.43 2.29.46 5.19 1.52 7.14 2.5 1.75.87 4.47 1.38 6.07 1.79 2.01.5 3.88 1.58 5.72 2.5 1.5.75 4.17 1.13 5.36 1.42 2.07.52 4.33.28 6.07.72 1.85.46 3.24 1.08 4.64 1.43 1.96.49-4.08.33-6.07 0-2.49-.42-4.71-1.18-7.14-1.79-2.5-.62-5.61-1.43-7.86-1.43-2.61 0-5.63-1.35-8.22-1.78-3.29-.55-6.38-2.05-9.64-2.86-3.02-.75-5.86-2.14-8.93-2.14-1.93 0-4.55-1.05-6.07-1.43-1.79-.45-3.98-.88-5.36-1.43-1.7-.68-4.02-1.12-5.35-1.79-1.51-.75-2.93-1.44-4.29-1.78-1.21-.31-2.33-2.17-2.86-3.22-.59-1.19-1.22-2.81-1.78-3.92-.78-1.57-.68-2.47-1.79-3.58-.86-.86-3.09-.95-3.93-1.78-.71-.72-3.66-.36-5-.36-.69 0-1.98-3.25-2.14-3.57-.83-1.67-1.41-2.91-1.07-4.29.56-2.25 2.99 1.25 3.21 2.15.42 1.65.1 3.41 2.15 3.93 1.17.29.71-3.65.71-4.65 0-2.71-.71-2.13-2.14-3.57-.89-.88-.79-.78-2.14-2.14zM580 490.22c-2.69-2.69 0 7.62 0 11.43 0 3.61.71 5.91.71 10 0 3.18.71 6.46 0 9.28-.69 2.76-2.17 5.12-2.85 7.86-.78 3.12 0 7.49 0 10.72 0 3.72.73 7.2 1.43 10 .77 3.11 0 7.48 0 10.71 0 5.88-2.76 2.24-4.29.71-1.96-1.96-2.59-7.33-3.57-9.28-1.81-3.63-3.49-6.1-4.29-9.29-.31-1.24-2.32-1.12-3.57-1.43-2.79-.69 2.29 5.29 3.57 7.86 1.45 2.9 2.23 5.17 3.57 7.86 1.01 2.01 1.63 7.2 2.15 9.28.78 3.12 0 7.49 0 10.72 0 7.08 5.02 13.65 6.43 19.28.74 2.97-.92 4.7-2.15 7.15-1.55 3.09-3.02 4.62-4.28 7.14-1.08 2.16-4.2 3.88-6.43 5-2.58 1.29-4.22 3.18-6.43 4.29-5.83 2.91-3.03-6.81-2.14-8.58 1.72-3.44 1.58-6.74 2.85-9.28 1.77-3.53-1.47-7.25-2.14-8.57-1.67-3.34-3.54-3.76-7.14-2.86-2.4.6-4.1 4.1-5.72 5.71-2.26 2.27-3.65 5.33-4.28 7.86-.86 3.43-2.84 5.68-4.29 8.57-1.51 3.03-3.62 6.53-5 9.29-1.32 2.64-5.46 3.69-7.85 4.28-3.55.89-5.32 2.47-7.15 4.29-2.8 2.8-4.6 3.83-9.28 5-4.03 1.01-5.81 1.52-7.86 3.57-2.69 2.69-6.77 1.26-9.29 0-1.83-.92-3.16-2.65-5-3.57-2.42-1.21 4.51-3.08 6.43-5 1.87-1.87 3.74-3.19 5-5.71.53-1.07 5.9-2.96 7.15-3.58 3.48-1.74 3.11-2.85 8.57-2.85 4.31 0 6.37-.7 9.28-1.43 2.73-.69 4.56-3.13 6.43-5 2.63-2.63 2.49-5.99 2.86-7.86.63-3.14-1.95-3.31 2.86-5.71 2.56-1.28 5.2-4.03 7.14-5 2.41-1.21 4.15-3.44 5.71-5 2.19-2.19 3.97-3.06 6.43-4.29 3.1-1.55 4.53-3.33 7.86-5 2.25-1.13 3.35-4.56 4.28-6.43 1.53-3.05 2.15-4.5 2.15-8.57v-10.71c0-.75-4.55-5.52-5-6.43-1.84-3.68-4.2-2.54-6.43-1.43-3.75 1.88-1.61 4.1-5.72 0-3.8-3.81-1.83-7.77 0-11.43 1.45-2.88.35-7.12 1.43-9.28.95-1.89 5.78-1.46 7.15-2.15 2.34-1.17 0-5.24 0-7.85 0-2.03 2.32 3.79 4.28 4.28 1.5.38-1.16-5.94 3.57-3.57 2.69 1.34 3.04 2.85 4.29-2.14.54-2.19-1.66-6.63-2.14-8.57-.87-3.49 0-7.14-.72-10-1.27-5.08 2.94-1.11 3.57 1.42.79 3.15 1.74 6.02 3.57 7.86 2.54 2.53-.15-7.24.72-10.71.85-3.41-2.26-4.03 3.57-2.86zm-24.29 63.57c.83-3.28-5.6 4.57-6.42 7.86-.95 3.8-1.6 4.67 0 7.86 1.68 3.35 3.16 3.67 6.42 2.85 2.88-.72 4.04-4.49 5-6.43 1.63-3.25 1.43-6.01 1.43-10 0-3.48-4.68-3.01-6.43-2.14zm-59.28 20.72c0-4.55 2.03 7.32 3.57 15 .61 3.04-2.73 6.16-3.57 7.85-1.75 3.49-3.03 4.78.71 5.72 1.73.43 6.5-4.36 7.15-5 1.56-1.57 2.57-5.15 3.57-7.15 1.29-2.59 1.43-5.39 1.43-9.28 0-4.02-1.62-5.19-3.58-7.14-2.06-2.07-7.4 0-9.28 0z" fill="#5f4433"/><path d="M198.21 725.76c-31.68-25.1-58.72-54.48-81.42-98.22 5.68-.17 12.76 2.42 15 8.04 3.01 5.23 4.03 11.42 7.5 16.43 1.97 6.72 11.5 6.54 10-1.46-.71-8.06 7.82-4.48 10.01.1 1.71 4.44 10.59 5.92 6.81-.57-2.94-5.91-8.39-10.9-9.4-17.69.2-2.21-3.47-4.86.92-4.77 4.04 4.12 1.4 10.95 6.3 15.1 2.61 4.85 10.47 10.35 5.11 15.7 3.99 2.59 5.96 7.8 9.08 10.41 2.14-1.59 3.98 2.22 3.76-2.52-.86-2.21-2.38-8.81.69-3.49 2.56 5.67 8.47 10.16 8.14 16.69 4.66 4.89 5.8 11.59 8.93 17.14 6.41 2.13 7.91 9.16 13.22 12.86 2.52 4.81 9.4 7.27 10.1 12.61-2.99 1.26-11.12-1.95-10.9.91 5.29 3.17 10.99 5.58 16.19 8.91 5.25 3.08 10.92 5.76 15.53 9.69-6.43-.81-12.18-4.42-18.39-6.23-5.91-3.23-12.7-5.14-17.27-10.38-3.24-1.72-6.98-.96-9.91.74z" color="#000" fill="url(#g)"/><path d="M402.14 593.08c-2.3-1.33-6-1.86-7.85 0-2.83 2.82-2.08 4.42-.72 7.14 1.48 2.95 6.71.58 7.86 0 3.33-1.66 3.72-2.13.71-7.14zm-30.71 16.43c3.14-1.58-5.88 4.14-9.29 5-2.29.57-6.01 3.87-7.14 5-2.9 2.89-.98 5.45.71 7.14 2.9 2.89 2.27 3.07 7.15 4.28 2.39.6 3.83 5.27 5 6.43 1.22 1.23 3.26 1.43 5 1.43 2.57 0-3.14-4.12-4.29-6.43-1.48-2.95-3.13-3.85-5-5.71-2.71-2.71 2.32-5.17 3.57-6.43 1.79-1.79 5.36-1.79 7.15-3.57 2.91-2.92 1.53-6.27-2.86-7.14zm66.43-10c-1.37 2.72 4.09-5.72 7.14-5.72 3.93 0-.58 6.87-.71 7.14-1.82 3.64-4.26 2.19-6.43-1.42zm-28.22-17.15c1.2.7 2.72 1.43 5 1.43 1.78 0 .85.09 0 1.79-.78 1.57-3.45.24-3.93 0-.9-.46-.86-2.17-1.07-3.22zm72.15 7.5c-1.3.59-3.01 2.65-3.93 3.57-1.14 1.14-1.04 2.36-1.43 3.93-.42 1.68-1.02 2.85-2.5 3.22-1.98.49-.54-2.48-.36-3.22.35-1.38 1.61-2.32 2.5-3.21 1.05-1.05 1.23-2.01 3.22-2.5.99-.25 1.7-1.15 2.5-1.79zm-18.22 23.22c1.4-.35-3.58.39-3.93 1.78-.17.69 3.92.72 4.65.72 1.38 0 1.9-2.5-.72-2.5zm138.57-138.22c0 .79-.64 1.43-1.43 1.43-.78 0-1.42-.64-1.42-1.43s.64-1.43 1.42-1.43c.79 0 1.43.64 1.43 1.43zm8.22 16.43a1.43 1.43 0 1 1-2.86 0 1.43 1.43 0 0 1 2.86 0zm-10 5.72c0 .78-.64 1.42-1.43 1.42s-1.43-.64-1.43-1.42a1.43 1.43 0 1 1 2.86 0zm-8.57-.72c0 .99-.8 1.79-1.79 1.79s-1.79-.8-1.79-1.79c0-.98.8-1.78 1.79-1.78s1.79.8 1.79 1.78zm-52.5-26.07a1.43 1.43 0 1 1-2.86 0 1.43 1.43 0 0 1 2.86 0zm6.07-9.64a1.786 1.786 0 0 1-3.57 0 1.786 1.786 0 1 1 3.57 0zm-66.79 206.07c.56 2.88-4.55 6.61-5.71 8.93-1.57 3.13-1.96 3.65-.72 7.5 1.41 4.36 7.87 1.42 8.57.71 2.55-2.54-.94-4.17 2.15-5.71 2.71-1.36 5.44-2.26 7.85-2.86 3.93-.98 7.93.02 2.15-1.43-3.38-.84-4.71.64-7.86 1.43-3.82.95-5 2.77-5-2.86 0-2.76-.07-2.31-1.43-5.71zm165.72-127.14c-.04 2.36.01 4.73-.17 7.09-.35-1.48-.21-5.38-.51-5.52-.41 3.32.45 6.58.6 9.83-1.66 2.86-3.71 5.84-3.1 9.35.74 3.1.49 6.95 1.44 9.66 2.27-3.04 2.13-7.24 4.24-10.41 2.1-3.51-2.08-6.55-1.41-10.15 1.61-2.33 3.01 3.1 4.1 4.24 2.26 3.77 4.07-5.5 4.19-1-.36 3.4.57 7.12-1.15 10.23-3.49 2.14-2.06 6.29-4.2 9.12-1.92 3.78.02 8.45-2.55 12.01-1.32 3.35-5.22 3.16-7.83 4.85-3.76 1.86-5.54 6.02-9.01 8.2-3.94 1.16-2.24-4.77-1.43-6.79-1.04-1.89-3.33-2.99-4.59-4.79-4.53-.04-4.31 6.35-.36 7.38 2.47 2.43-.18 7.3-3.33 7.8-3.19.48-6.27-1.02-9.49-.8-2.86-.93-4.24-4.68-7.65-4.53-4.88-1.32-1.41 5.71-5.63 6.02-3.48 1.23-1.44-5.03-.21-6.41 1.1-3.67 5.53-1.85 7.82-3.76 1.33-3.53-7.54-3.9-2.54-7.12 2.64-1.19 6.04-1.75 5.62-5.58 1.02-3.44 4.69-3.22 7.5-2.5 2.81 1.28 5.26-2.89 1.75-3.72-2.05-1.17-7.25-1.96-4.92-5.25 1.38-2.88 7.01-5.54 7.7-.74 1.16 3.88 3.52-1.29 2.92-3.22 1.24-1.2 5.12-.06 3.62-3.14-1.08-3.79 4.51-3.42 4.56-.05.97 4.47 2.66-1.27 2.8-2.92-.32-2.98.34-6.45 4.05-6.2 2.94-1.02.68-5.42 1.7-7.82-.18-2.56-.13-7.22 3.49-4.37.65.35 1.29.73 1.98 1.01zM164.64 673.08c1.56.76 2.32 2.51 3.2 3.92.81 1.86 2.47 3.16 3.29 5.02 1.22 1.97 3.07 3.39 4.95 4.67.81.66-.33-1.91-.32-2.5-.63-1.82-.93-3.7-1.02-5.62-.57-1.14-.19-2.96 1.26-1.61 1.8.78 2.52 2.64 3.14 4.36 1.06 2.25 2.97 3.95 4.31 6.02 1.35 1.69 2.9 3.21 4.36 4.81 1.48 1.32 3.53 2.36 3.89 4.51.39 1.68-2.49 2.69-.88 4.48 1.27 2.79 3.91 4.56 5.55 7.1.7.82 2.32 3.22 1.51 3.63-2.44-1.08-5.01-2.08-6.8-4.15-1.49-1.51-3.16-2.82-4.75-4.2-.68-.52-3.52-2.21-2.09-.24 1.16 1.76 2.7 3.18 4.35 4.47 1.14 1.28 2.89 2.05 3.65 3.62-1.08 1.51-3.44.12-4.49-.94-2.26-2.29-5.4-4.06-6.32-7.35-.19-2.01 2.45-2.39 3.51-3.65 1.91-.72.13-2.97-1.41-2-1.53-.01-3.66 1.03-4.48-.84-1.11-1.82-2.07-3.76-3.45-5.4-1.31-1.26-2.58-2.58-3.35-4.25-1.58-2.06-3.5-3.89-4.55-6.31-.84-1.84-2.03-3.54-2.5-5.53-.82-.32-.47-1.23-.56-2.02zm2.5 11.78c1.64.59 2.45 2.04 3.22 3.57.52 1.05 1.81 2.17 2.5 2.86 1.94 1.94-1.23.28-1.79 0-1.11-.56-1.77-2.13-2.5-2.86-1.08-1.08-1.43-1.44-1.43-3.57zm185-343.21c.36 2.16-5.55 6.03-10 7.14-4.46 1.12.02 2.33 3.22 2.14 2.78-.16-3.37 1.47-6.07 2.15-2.94.73-4.78 4.39-7.15 3.57-3.59-1.26 2.15-15.81 3.93-17.5 4.33-1.97.69 5.31 1.79 7.5.37.74 6.66-3.33 7.14-3.57 1.71-.86 4.84-2.47 7.14-1.43z" opacity=".8" color="#000" fill="#3c2c22"/><path d="M168.57 512.01c2.04-4.42 5.67-9.64 11.16-9.25 3.9.35 5.73 4.78 6 8.2-.46 5.32-5.19 8.98-9.47 11.51-3.56 2.02-8.41-.54-8.06-4.8-.15-1.9.13-3.79.37-5.66zm-27.86 37.5c-2.39 1.59-4.59 4.15-4.31 7.21-.11 2.9.72 6.66 3.88 7.6 3.54.93 7.25-1.42 9.01-4.39.63-2.63.36-5.42.42-8.11.05-3.26-3.61-5.21-6.47-4.07-1.03.29-1.8 1.02-2.53 1.76zm-31.42-112.5c-.85 3.32-3.01 6.09-4.22 9.27-.85 1.92-1.39 4.32-.21 6.23.64 1.01 1.66 1.95 2.95 1.83 1.66-.08 3.07-1.1 4.34-2.08 1.79-1.01 3.97-2.06 4.5-4.23.8-3.75 2.29-7.52 1.68-11.41-.16-1.73.17-3.68-.96-5.14-.83-.9-2.17-1.04-3.33-.99-2.15.15-4.36 1.78-4.48 4.06-.99.64-.57 1.57-.27 2.46zm13.79 154.63c3.08 2.51 5.19 2.83 5.62 1.75.6-.63 1.8.24 1.39 1.01-.52 1.48-2.01 1.6-3.48 2.09-2.43.81-4.92-.03-6.01-2.38-.81-2.79-2.41-8.12 3.54-9.51-2.68 1.5-1.33 5.59-1.06 7.04z" fill="#a36734"/><path d="M178.57 511.29c-1.93.9-3.08 1.25-2.5 3.57s3-.5 3.22-.71c.78-.79-.11-1.84-.72-2.86zm-65.71-73.21c-1.59 1.04-1.41 2.78-1.79 4.28-.64 2.56 2.17-.41 2.5-1.07.41-.82.35-2.79-.71-3.21zm-3.22-3.04c1.24-1.2 2.9-2.08 4.67-1.76 1.82-.29 3.14 1.14 2.85 2.9.3 1.91.09 3.83-.39 5.68-.29 1.87-.69 3.76-1.51 5.45-.79 1.2-1.22 2.8-2.67 3.39-1.39.72-2.98 1.51-4.58 1.11.25-.63 2.33-.9 3.11-1.76 1.58-.74 2.29-2.36 2.91-3.88.78-1.7.8-3.59 1.19-5.4.05-1.58.19-3.52-1.12-4.67-1.39-.58-2.24 1.14-3.13 1.88-.31.7-1.39 3.36-1.33 1.18-.09-1.37-.33-2.76 0-4.12zm38.22 121.97c-1.57.96-2.47 2.65-3.89 3.78-1.13.53-2.41.49-3.63.5-.41-.09-1.09-.14-1.28.32.27.45.92.41 1.33.67.86.39 1.82.89 2.77.57 1.1-.32 2-1.12 3.11-1.41 1.05-.53 1.95-1.42 2.37-2.54.06-.73-.59-1.24-.78-1.89zm-3.22-3.58c.41-.81-1.07 1.6-1.07 2.5 0 .94.47 1.24 1.25 1.43.98.25 1.07-.81 1.07-1.6 0-.94.14-1.52-.18-2.15-.19-.39-.78-.18-1.07-.18zM230 512.54c-1.51-.44-3.23.22-4.2 1.41-.41.94-.35 2.09-.05 3.05.5 1.06 1.12 2.11 2.16 2.71 1.46 1.08 3.28 1.83 5.12 1.59.95.28 2.19-.88.84-1.32-.9-.14-1.74-.45-2.54-.91-1.15-.3-2.09-1.22-2.44-2.36-.34-1.14.08-2.36.89-3.19.16-.3.23-.64.22-.98zm1.43 1.61c-.43.56-.89 1.41-.89 2.5 0 .65 1.13.95 1.6 1.07 1.41.35.85-1.98.72-2.5-.22-.86-.49-1.26-1.43-1.07zm-13.04-58.22c-.95-.11-1.84.43-2.71.72-1.71 1.05-1.91 4.11.04 5.03 1.24.58 3.1.72 3.93-.59.85-1.32.68-3.09-.03-4.42-.32-.38-.78-.57-1.23-.74zm-1.6-10c-.24.51-.36 1.59-.36 2.68 0 .71 1.18 1.07 1.78 1.07.91 0 1.08-.79 1.08-1.78 0-.76-.53-1.48-.9-1.97-.41-.54-1.01-.23-1.6 0zm19.08 189.49c-1.42-.92-3.55-.3-4.7.74-1.22 2.13.61 5.35 3.14 5.14 1.56.35 3.31-.52 3.29-2.29.35-1.32.09-3.66-1.73-3.59zm-8.33-10.35c1.58.73 2.55 2.69 2.43 4.38-.75 2.36-3.97 3.86-6.11 2.33-1.45-1.19-2.66-3.02-2.36-4.99.32-.68 1.06-3.12 1.82-1.94.02 1.23-.49 2.43-.2 3.67.05 1.7 2.15 2 3.38 1.37 1.61-.82 1.5-2.92 1.11-4.42l-.04-.2-.03-.2z" fill="#6e4f35"/><path d="M373.57 653.08c-.14-13.09-27.17-26.34-13.05-35.46 5.37-11.83 19.95-13 25.68-.98 10.05-.31 1.72-18.69 16.37-13.31 5.71-3.95 14.22-10.64 8.99 1.76-7.05 8.55 12.33 3.93 15.88 8.29 4.39-4.56 18.04-28.54 17.8-11.64-9.01 8.83-13.83 28.84 5.52 24.76 10.07 8.79 31.5-8.69 32.64 11.53-5.34 12.46-25.29 9.51-30.31 18.49 13.37 4.4 15.5 17.85 20.64 29.83 13.04-1.22 23.95-12.42 32.06-22.52 11.21-13.72 26.82-2.35 24.63 12.76-16.1 16.26 14.24 24.2 23.24 11.19 10.07-8.31 22.25-14.41 28.67-26.37 9.45-15.96 18.35-34.25 34.81-44.05 14.75-5.65 15.92 5.85 9.26 17.68-11.4 20.21-25.04 42.44-55.69 72.07-15.8 6.42-28.88 16.04-43.57 24.54-17.03 6.92-34.08 14.56-48.41 26.24-14.4 12.09-33.05 18.9-51.91 19.27-7.1 1.9-27.79 3.24-10.41-3.13 10.55-4.77 47.66 3.41 33.45-21.73-13.82-9.6-28.49 2.25-40.91 12.56-17.4 10.39-26.7-14.37-11.47-19.43-10.73-4.62-3.47-13.62-2.57-20.76-7.37-3.5-32.4-10.26-26.22 3.26-16.48 1.59-21.84 19.1-39.94 15-14.91-7.75-31.1 16.65-10.89 19.43 11.36-.91 23.25 9.65 29.61 13.54-16.03-1.67-30.01-5.58-41.52-7.42-6.29 3.84-14.36-.89-5.25-4.28-6.7-2.78-17.35 1.05-16.86-9.36-17.6-8.76 10.15-5.25 13.85-10.31 5.97-13.38 26.19-7.28 37.31-16.45 6.16-1.06 30.32-8.24 11.65-9.66-8.62 3.53-14.31 8.91-22.93 3.17-7.09 7.04-20.61.69-25.72 12.04-8.94-.9-17.94.02-25.68 2.52 1.8-8.22 6.13-16.64-5.73-9.6-.07-8.23 20.62-11.25 2.7-12.76-6.55.1-11.01-8.28-14.5-11.4 5.72-11.91-22.12 3.16-28.36-7.17-10.98-2.02-15.67-20.49.44-14.89 17.41 4.96 30.54-10.52 47.42-2.25 11.8 4.92 24.09 29.76 38.43 14.76 7.76-7.74 17.06 14.13 28.57 4.9 14.43 1.07-1.79-22.41 17.83-20.48-6.63-8.21-2.96-11.82 6.77-11.68 5.75-1.61 7-7.33 7.68-12.5zm5.24 16.94c-2.76 1.98-12.14 17.67-18.69 13.64-5.41-.95-2.9 6.73-1.69 7.33 2.09 1.05 12.2 2.26 14.82 2.26 3 0 4.56-1.01 7.07-1.01 2.82 0-3.93 2.3-5.05 4.55-1.08 2.17 3.14 3.08 4.04 3.53 1.34.67 2.81 3.01 3.54 4.04 2.59 3.67 7.78-2.35 8.08-3.53.59-2.36 1.14-4.14 1.51-6.06 1.8-9.17-2.21-19.57-2.52-20.71-1.83-6.69-8.37-5.64-11.11-4.04z" fill="url(#h)"/><path d="M512.86 263.79c-.86 1.92 1.59 2.87 2.42 4.22.94 1.32 2.68 3.3 1.3 4.87-1.56 1.51-4.02.48-5.69 1.78-1.24.97-3.1 2.85-4.43.92-.59-1.13-2.27-3.28-3.38-1.51-.29 2.04.11 4.13.54 6.12 1.06 2.4 3.89 3.18 6.28 3.43 5.19.56 10.57-.49 15.6 1.3 1.88.63 3.57 1.73 5.39 2.51 2.2.42 2.43-2.28 2.72-3.8.97-5.11-1.21-10.75-5.59-13.65-2.22-1.61-4.08-3.74-6.61-4.89-2.46-1.24-5.3-1.79-8.03-1.31-.17.01-.35.01-.52.01zm42.14 25c-3.27-.82 4.76 4.76 7.14 7.14 1.92 1.92-.22-5.93-2.14-7.85-1.19-1.19-3.35.38-5 .71z" color="#000" fill="url(#i)"/><path d="M661.43 498.79a287.86 290.71 0 1 1-575.72 0 287.86 290.71 0 1 1 575.72 0z" transform="matrix(1 0 0 .99019 0 3.463)" color="#000" fill="url(#j)"/></g></svg>